<svg xmlns="http://www.w3.org/2000/svg" xmlns:xlink="http://www.w3.org/1999/xlink" xmlns:sketch="http://www.bohemiancoding.com/sketch/ns" viewBox="0 0 30 37.5" version="1.1" x="0px" y="0px"><title>gesture_033-swipe_left-hand-touch-finger</title><desc>Created with Sketch.</desc><g stroke="none" stroke-width="1" fill="none" fill-rule="evenodd" sketch:type="MSPage"><g sketch:type="MSArtboardGroup" transform="translate(-90.000000, -180.000000)" fill="#000000"><g sketch:type="MSLayerGroup" transform="translate(88.000000, 181.000000)"><path d="M19,13 C19.8724018,13 20.6143422,13.5585717 20.8876948,14.3375886 C21.2057309,14.1243714 21.5883412,14 22,14 C23.1045695,14 24,14.8954305 24,16 L24,19.5 C23.9999998,22.7874146 21.9999998,26.2555542 22,28.5 C22,28.7761424 21.7761424,29 21.5,29 C21.2238576,29 21,28.7761424 21,28.5 C20.9999998,25.8953247 22.9999998,22.7747192 23,19.5 L23,16 C23,15.4477153 22.5522847,15 22,15 C21.4477153,15 21,15.4477153 21,16 L21,17.5 C21,17.7761424 20.7761424,18 20.5,18 C20.2238576,18 20,17.7761424 20,17.5 L20,15 C20,14.4477153 19.5522847,14 19,14 C18.4477153,14 18,14.4477153 18,15 L18,16.5 C18,16.7761424 17.7761424,17 17.5,17 C17.2238576,17 17,16.7761424 17,16.5 L17,6 C17,5.44771525 16.5522847,5 16,5 C15.4477153,5 15,5.44771525 15,6 L15,16.5 C15,16.7761424 14.7761424,17 14.5,17 C14.2238576,17 14,16.7761424 14,16.5 L14,8 C14,7.44771525 13.5522847,7 13,7 C12.4477153,7 12,7.44771525 12,8 L12,19.5 C11.9999998,20.0991211 11.17041,20.1176758 10.9953365,19.7508899 L9.12432619,16.510205 C8.84818381,16.0319124 8.2365934,15.8680372 7.75830078,16.1441796 C7.28000816,16.420322 7.116133,17.0319124 7.39227538,17.510205 C7.51948102,17.7305317 8.00835832,18.5789287 8.11108295,18.7552163 C8.96539314,20.2213135 9.32897957,22.6953125 9.93878344,23.7602729 C10.8366617,25.3283258 12.805023,28.0680475 12.9056458,28.2076791 C13.0670902,28.4317111 13.0163529,28.7442014 12.7923209,28.9056458 C12.5682889,29.0670902 12.2557986,29.0163529 12.0943542,28.7923209 C11.9918602,28.6500926 10.1656495,26.1560059 9.07469032,24.262891 C8.29284849,22.9061799 8.02343745,20.6101685 7.24505754,19.2552163 C7.14326493,19.0780224 6.65345561,18.2305316 6.52624997,18.010205 C5.97396522,17.0536198 6.30171553,15.830439 7.25830078,15.2781542 C8.21488603,14.7258695 9.43806684,15.0536198 9.99035159,16.010205 L11,17.7589674 L11,8 C11,6.8954305 11.8954305,6 13,6 C13.3642871,6 13.7058266,6.09739429 14,6.26756439 L14,6 C14,4.8954305 14.8954305,4 16,4 C17.1045695,4 18,4.8954305 18,6 L18,13.2675644 C18.2941734,13.0973943 18.6357129,13 19,13 Z" sketch:type="MSShapeGroup" transform="translate(15.128983, 16.500019) rotate(-36.000000) translate(-15.128983, -16.500019) "/><path d="M18.6464466,5.64644661 C18.8417088,5.45118446 19.1582912,5.45118446 19.3535534,5.64644661 C19.5488155,5.84170876 19.5488155,6.15829124 19.3535534,6.35355339 L17.3535534,8.35355339 C17.1582912,8.54881554 16.8417088,8.54881554 16.6464466,8.35355339 L14.6464466,6.35355339 C14.4511845,6.15829124 14.4511845,5.84170876 14.6464466,5.64644661 C14.8417088,5.45118446 15.1582912,5.45118446 15.3535534,5.64644661 L16.5,6.79289322 L16.5,-3 C16.5,-3.27614237 16.7238576,-3.5 17,-3.5 C17.2761424,-3.5 17.5,-3.27614237 17.5,-3 L17.5,6.79574587 L18.6464466,5.64644661 Z" sketch:type="MSShapeGroup" transform="translate(17.000000, 2.500000) rotate(-270.000000) translate(-17.000000, -2.500000) "/></g></g></g><text x="0" y="45" fill="#000000" font-size="5px" font-weight="bold" font-family="'Helvetica Neue', Helvetica, Arial-Unicode, Arial, Sans-serif">Created by Pham Thi Dieu Linh</text><text x="0" y="50" fill="#000000" font-size="5px" font-weight="bold" font-family="'Helvetica Neue', Helvetica, Arial-Unicode, Arial, Sans-serif">from the Noun Project</text></svg>